<svg xmlns="http://www.w3.org/2000/svg" viewBox="0 0 1200 675" role="img" aria-label="小团队游戏项目的工具链原则">
  <defs>
    <linearGradient id="bg" x1="0" y1="0" x2="1" y2="1">
      <stop offset="0" stop-color="#ffaf61"/>
      <stop offset=".52" stop-color="#f8fbff"/>
      <stop offset="1" stop-color="#46d7bf" stop-opacity=".62"/>
    </linearGradient>
    <radialGradient id="sphere" cx=".34" cy=".25" r=".74">
      <stop offset="0" stop-color="#fff"/>
      <stop offset=".38" stop-color="#46d7bf"/>
      <stop offset="1" stop-color="#17243a"/>
    </radialGradient>
    <pattern id="grid" width="54" height="54" patternUnits="userSpaceOnUse">
      <path d="M54 0H0v54" fill="none" stroke="#17243a" stroke-opacity=".12"/>
    </pattern>
    <filter id="shadow" x="-40%" y="-40%" width="180%" height="180%">
      <feDropShadow dx="0" dy="20" stdDeviation="18" flood-color="#17243a" flood-opacity=".18"/>
    </filter>
  </defs>
  <rect width="1200" height="675" fill="url(#bg)"/>
  <rect width="1200" height="675" fill="url(#grid)"/>
  <circle cx="214" cy="496" r="168" fill="#fff" opacity=".44"/>
  <g filter="url(#shadow)"><circle cx="690" cy="300" r="92" fill="#17243a" opacity=".92"/>
      <circle cx="895" cy="372" r="112" fill="#46d7bf" opacity=".86"/>
      <path d="M760 300h105M840 260l82 72-82 72" fill="none" stroke="#fff" stroke-width="16" stroke-linecap="round" stroke-linejoin="round"/>
      <path d="M570 462l128-128M940 190l92 92" stroke="#ffaf61" stroke-width="24" stroke-linecap="round"/></g>
  <g>
    <rect x="78" y="82" width="92" height="36" rx="18" fill="#17243a" opacity=".12"/>
    <text x="100" y="106" fill="#17243a" font-size="18" font-weight="800" font-family="Microsoft YaHei, PingFang SC, Arial">工具链</text>
    <text x="78" y="190" fill="#eef6ff" font-size="58" font-weight="900" font-family="Microsoft YaHei, PingFang SC, Arial">小团队游戏项目的工具链原则</text>
    <text x="82" y="365" fill="#52647e" font-size="24" font-weight="650" font-family="Microsoft YaHei, PingFang SC, Arial">工具链的价值不在复杂，而在减少重复劳动、降低人为</text><text x="82" y="399" fill="#52647e" font-size="24" font-weight="650" font-family="Microsoft YaHei, PingFang SC, Arial">错误，并让关键流程可以被复现。</text>
    <rect x="82" y="500" width="94" height="34" rx="17" fill="#fff" opacity=".72"/>
    <text x="99" y="523" fill="#17243a" font-size="16" font-weight="800" font-family="Microsoft YaHei, PingFang SC, Arial">工具链</text><rect x="198" y="500" width="94" height="34" rx="17" fill="#fff" opacity=".72"/>
    <text x="215" y="523" fill="#17243a" font-size="16" font-weight="800" font-family="Microsoft YaHei, PingFang SC, Arial">自动化</text><rect x="314" y="500" width="94" height="34" rx="17" fill="#fff" opacity=".72"/>
    <text x="331" y="523" fill="#17243a" font-size="16" font-weight="800" font-family="Microsoft YaHei, PingFang SC, Arial">工程效率</text>
  </g>
  <text x="1080" y="612" text-anchor="end" fill="#17243a" font-size="13" font-weight="800" opacity=".34" font-family="Arial">SOLUS 3db344d49984</text>
</svg>