<svg xmlns="http://www.w3.org/2000/svg" viewBox="0 0 1200 675" role="img" aria-label="渲染优化排查清单">
  <defs>
    <linearGradient id="bg" x1="0" y1="0" x2="1" y2="1">
      <stop offset="0" stop-color="#46d7bf"/>
      <stop offset=".52" stop-color="#f8fbff"/>
      <stop offset="1" stop-color="#8aa0ff" stop-opacity=".62"/>
    </linearGradient>
    <radialGradient id="sphere" cx=".34" cy=".25" r=".74">
      <stop offset="0" stop-color="#fff"/>
      <stop offset=".38" stop-color="#8aa0ff"/>
      <stop offset="1" stop-color="#3650d8"/>
    </radialGradient>
    <pattern id="grid" width="54" height="54" patternUnits="userSpaceOnUse">
      <path d="M54 0H0v54" fill="none" stroke="#3650d8" stroke-opacity=".12"/>
    </pattern>
    <filter id="shadow" x="-40%" y="-40%" width="180%" height="180%">
      <feDropShadow dx="0" dy="20" stdDeviation="18" flood-color="#3650d8" flood-opacity=".18"/>
    </filter>
  </defs>
  <rect width="1200" height="675" fill="url(#bg)"/>
  <rect width="1200" height="675" fill="url(#grid)"/>
  <circle cx="214" cy="496" r="168" fill="#fff" opacity=".44"/>
  <g filter="url(#shadow)"><circle cx="742" cy="282" r="112" fill="url(#sphere)" opacity=".96"/>
      <circle cx="896" cy="402" r="72" fill="#8aa0ff" opacity=".82"/>
      <path d="M620 500h360" stroke="#fff" stroke-width="18" stroke-linecap="round" opacity=".72"/>
      <path d="M640 232l210 122M730 150l60 250" stroke="#fff" stroke-width="4" opacity=".54"/></g>
  <g>
    <rect x="78" y="82" width="92" height="36" rx="18" fill="#3650d8" opacity=".12"/>
    <text x="100" y="106" fill="#3650d8" font-size="18" font-weight="800" font-family="Microsoft YaHei, PingFang SC, Arial">图形渲染</text>
    <text x="78" y="190" fill="#f4f8ff" font-size="58" font-weight="900" font-family="Microsoft YaHei, PingFang SC, Arial">渲染优化排查清单</text>
    <text x="82" y="365" fill="#52647e" font-size="24" font-weight="650" font-family="Microsoft YaHei, PingFang SC, Arial">一份用于定位渲染性能问题的实践清单，覆盖帧调试、</text><text x="82" y="399" fill="#52647e" font-size="24" font-weight="650" font-family="Microsoft YaHei, PingFang SC, Arial">Draw Call、Overdraw、纹理和 S</text>
    <rect x="82" y="500" width="94" height="34" rx="17" fill="#fff" opacity=".72"/>
    <text x="99" y="523" fill="#3650d8" font-size="16" font-weight="800" font-family="Microsoft YaHei, PingFang SC, Arial">渲染</text><rect x="198" y="500" width="94" height="34" rx="17" fill="#fff" opacity=".72"/>
    <text x="215" y="523" fill="#3650d8" font-size="16" font-weight="800" font-family="Microsoft YaHei, PingFang SC, Arial">Shader</text><rect x="314" y="500" width="94" height="34" rx="17" fill="#fff" opacity=".72"/>
    <text x="331" y="523" fill="#3650d8" font-size="16" font-weight="800" font-family="Microsoft YaHei, PingFang SC, Arial">性能</text>
  </g>
  <text x="1080" y="612" text-anchor="end" fill="#3650d8" font-size="13" font-weight="800" opacity=".34" font-family="Arial">SOLUS 01aad2d06028</text>
</svg>