<svg xmlns="http://www.w3.org/2000/svg" viewBox="0 0 1200 675" role="img" aria-label="SOLUS 技术档案的起点 封面">
  <defs>
    <linearGradient id="bg" x1="0" y1="0" x2="1" y2="1">
      <stop offset="0" stop-color="#18212c"/>
      <stop offset=".52" stop-color="#111827"/>
      <stop offset="1" stop-color="#05080d"/>
    </linearGradient>
    <linearGradient id="wash" x1="0" y1="0" x2="1" y2="0">
      <stop offset="0" stop-color="#94a3b8" stop-opacity=".38"/>
      <stop offset=".54" stop-color="#14b8a6" stop-opacity=".18"/>
      <stop offset="1" stop-color="#111827" stop-opacity=".12"/>
    </linearGradient>
    <pattern id="grid" width="54" height="54" patternUnits="userSpaceOnUse">
      <path d="M54 0H0v54" fill="none" stroke="#f8fafc" stroke-opacity=".045"/>
    </pattern>
  </defs>
  <rect width="1200" height="675" fill="url(#bg)"/>
  <path d="M0 116C218 48 356 174 536 116s330-136 664-44v603H0z" fill="url(#wash)" opacity=".72"/>
  <rect width="1200" height="675" fill="url(#grid)"/>
  <path d="M64 102H1136M64 574H1136" stroke="#f8fafc" stroke-opacity=".08"/>
  <path d="M930 96v480" stroke="#f8fafc" stroke-opacity=".08"/>
  <path d="M64 195H1136" stroke="#94a3b8" stroke-opacity=".13"/>
  <path d="M310 96v480" stroke="#14b8a6" stroke-opacity=".11"/>
  <g opacity=".82"><path d="M286 132h410c34 0 62 28 62 62v344H348c-34 0-62-28-62-62z" fill="#18212c" stroke="#94a3b8" stroke-opacity=".34"/>
      <path d="M358 180h400v358H358c-40 0-72-32-72-72V252c0-40 32-72 72-72z" fill="#fff" opacity=".04"/>
      <path d="M386 252h244M386 306h292M386 360h214M386 414h262" stroke="#94a3b8" stroke-width="8" stroke-linecap="round" opacity=".28"/>
      <path d="M836 172v368" stroke="#14b8a6" stroke-width="4" stroke-linecap="round" opacity=".38"/>
      <g><circle cx="836" cy="230" r="22" fill="#14b8a6" opacity=".62"/><path d="M878 230h148" stroke="#f8fafc" stroke-opacity=".2" stroke-width="8" stroke-linecap="round"/></g><g><circle cx="836" cy="350" r="22" fill="#94a3b8" opacity=".62"/><path d="M878 350h116" stroke="#f8fafc" stroke-opacity=".2" stroke-width="8" stroke-linecap="round"/></g><g><circle cx="836" cy="470" r="22" fill="#14b8a6" opacity=".62"/><path d="M878 470h148" stroke="#f8fafc" stroke-opacity=".2" stroke-width="8" stroke-linecap="round"/></g></g>
  <g>
    <rect x="82" y="154" width="612" height="164" rx="6" fill="#04070d" opacity=".74"/>
    <rect x="82" y="154" width="612" height="164" rx="6" fill="#111827" opacity=".16" stroke="#94a3b8" stroke-opacity=".34"/>
    <text fill="#f8fafc" font-size="42" font-weight="800" font-family="Inter, Microsoft YaHei, Arial" letter-spacing="0"><tspan x="118" y="252">SOLUS 技术档案的起点</tspan></text>
    <text x="118" y="302" fill="#f8fafc" font-size="15" font-weight="700" opacity=".72" font-family="Inter, Microsoft YaHei, Arial">随笔 / NOTES / 2026.06.04</text>
  </g>
  <g>
    <rect x="64" y="54" width="118" height="38" rx="4" fill="#0f172a" stroke="#94a3b8" stroke-opacity=".52"/>
    <text x="84" y="79" fill="#f8fafc" font-size="15" font-weight="700" font-family="Inter, Microsoft YaHei, Arial">随笔</text>
    <text x="1136" y="79" text-anchor="end" fill="#f8fafc" font-size="12" font-weight="700" opacity=".56" font-family="Inter, Arial">NO. 344C</text>
    <path d="M158 604h142" stroke="#94a3b8" stroke-width="3" opacity=".72"/>
    <text x="64" y="618" fill="#f8fafc" font-size="12" font-weight="700" opacity=".58" font-family="Inter, Arial">SOLUS DEV NOTES</text>
    <text x="1136" y="618" text-anchor="end" fill="#f8fafc" font-size="12" font-weight="700" opacity=".58" font-family="Inter, Arial">2026.06.04</text>
    <text x="1136" y="540" text-anchor="end" fill="#f8fafc" font-size="34" font-weight="800" opacity=".18" font-family="Inter, Arial" letter-spacing="0">NOTES</text>
  </g>
</svg>