<svg xmlns="http://www.w3.org/2000/svg" viewBox="0 0 1200 675" role="img" aria-label="SOLUS 技术档案的起点">
  <defs>
    <linearGradient id="bg" x1="0" y1="0" x2="1" y2="1">
      <stop offset="0" stop-color="#10151d"/>
      <stop offset=".56" stop-color="#111827"/>
      <stop offset="1" stop-color="#05070d"/>
    </linearGradient>
    <radialGradient id="sphere" cx=".34" cy=".25" r=".74">
      <stop offset="0" stop-color="#f8fafc"/>
      <stop offset=".38" stop-color="#5eead4"/>
      <stop offset="1" stop-color="#93c5fd"/>
    </radialGradient>
    <pattern id="grid" width="54" height="54" patternUnits="userSpaceOnUse">
      <path d="M54 0H0v54" fill="none" stroke="#f8fafc" stroke-opacity=".06"/>
    </pattern>
    <filter id="shadow" x="-40%" y="-40%" width="180%" height="180%">
      <feDropShadow dx="0" dy="26" stdDeviation="22" flood-color="#000" flood-opacity=".42"/>
    </filter>
  </defs>
  <rect width="1200" height="675" fill="url(#bg)"/>
  <rect width="1200" height="675" fill="url(#grid)"/>
  <circle cx="415" cy="319.2" r="260" fill="#5eead4" opacity=".12"/>
  <circle cx="982" cy="188" r="210" fill="#93c5fd" opacity=".12"/>
  <circle cx="990" cy="548" r="168" fill="#5eead4" opacity=".08"/>
  <path d="M84 566C236 438 354 628 506 484s280-112 416-20 182 20 238-42" fill="none" stroke="#5eead4" stroke-opacity=".16" stroke-width="3"/>
  <g filter="url(#shadow)"><rect x="168" y="116" width="590" height="392" rx="26" fill="#1b2431" stroke="#5eead4" stroke-opacity=".48"/>
      <path d="M214 422L340 284l128 86 136-164 104 116" fill="none" stroke="#5eead4" stroke-width="4" opacity=".82"/>
      <path d="M214 454h492M214 386h492M214 318h492M214 250h492M292 166v314M414 166v314M536 166v314M658 166v314" stroke="#8fb8d7" stroke-opacity=".16"/>
      <rect x="802" y="150" width="232" height="72" rx="18" fill="#1b2431" stroke="#93c5fd" stroke-opacity=".36"/>
      <rect x="802" y="252" width="232" height="72" rx="18" fill="#1b2431" stroke="#5eead4" stroke-opacity=".36"/>
      <rect x="802" y="354" width="232" height="72" rx="18" fill="#1b2431" stroke="#93c5fd" stroke-opacity=".36"/>
      <circle cx="864" cy="522" r="42" fill="url(#sphere)"/>
      <circle cx="974" cy="522" r="42" fill="#93c5fd" opacity=".72"/></g>
  <g>
    <rect x="64" y="54" width="118" height="38" rx="6" fill="#0f172a" stroke="#5eead4" stroke-opacity=".52"/>
    <text x="84" y="79" fill="#f8fafc" font-size="15" font-weight="700" font-family="Inter, Microsoft YaHei, Arial">随笔</text>
    <text x="64" y="618" fill="#f8fafc" font-size="12" font-weight="700" opacity=".58" font-family="Inter, Arial">SOLUS ARCHIVE</text>
    <text x="1136" y="618" text-anchor="end" fill="#f8fafc" font-size="12" font-weight="700" opacity=".58" font-family="Inter, Arial">2026.06.04</text>
  </g>
</svg>