<svg xmlns="http://www.w3.org/2000/svg" viewBox="0 0 1200 675" role="img" aria-label="SOLUS 技术档案的起点">
  <defs>
    <linearGradient id="bg" x1="0" y1="0" x2="1" y2="1">
      <stop offset="0" stop-color="#10151d"/>
      <stop offset=".56" stop-color="#111827"/>
      <stop offset="1" stop-color="#05070d"/>
    </linearGradient>
    <radialGradient id="sphere" cx=".34" cy=".25" r=".74">
      <stop offset="0" stop-color="#f8fafc"/>
      <stop offset=".38" stop-color="#94a3b8"/>
      <stop offset="1" stop-color="#14b8a6"/>
    </radialGradient>
    <pattern id="grid" width="54" height="54" patternUnits="userSpaceOnUse">
      <path d="M54 0H0v54" fill="none" stroke="#f8fafc" stroke-opacity=".06"/>
    </pattern>
    <filter id="shadow" x="-40%" y="-40%" width="180%" height="180%">
      <feDropShadow dx="0" dy="26" stdDeviation="22" flood-color="#000" flood-opacity=".42"/>
    </filter>
  </defs>
  <rect width="1200" height="675" fill="url(#bg)"/>
  <rect width="1200" height="675" fill="url(#grid)"/>
  <circle cx="310" cy="181.2" r="260" fill="#94a3b8" opacity=".12"/>
  <circle cx="982" cy="188" r="210" fill="#14b8a6" opacity=".12"/>
  <circle cx="990" cy="548" r="168" fill="#94a3b8" opacity=".08"/>
  <path d="M84 566C236 438 354 628 506 484s280-112 416-20 182 20 238-42" fill="none" stroke="#94a3b8" stroke-opacity=".16" stroke-width="3"/>
  <g filter="url(#shadow)"><path d="M286 130h390c42 0 76 34 76 76v350H362c-42 0-76-34-76-76z" fill="#1a2430" stroke="#94a3b8" stroke-opacity=".32"/>
      <path d="M362 178h390v378H362c-42 0-76-34-76-76V254c0-42 34-76 76-76z" fill="#fff" opacity=".05"/>
      <path d="M386 250h246M386 306h290M386 362h214M386 418h262" stroke="#94a3b8" stroke-width="9" stroke-linecap="round" opacity=".28"/>
      <path d="M824 170v372" stroke="#14b8a6" stroke-width="4" stroke-linecap="round" opacity=".36"/>
      <circle cx="824" cy="228" r="28" fill="#14b8a6" opacity=".66"/>
      <circle cx="824" cy="348" r="28" fill="#94a3b8" opacity=".62"/>
      <circle cx="824" cy="468" r="28" fill="#14b8a6" opacity=".46"/>
      <path d="M864 228h150M864 348h112M864 468h134" stroke="#f8fafc" stroke-opacity=".2" stroke-width="8" stroke-linecap="round"/>
      <path d="M196 470l82-82 82 82-82 82z" fill="#94a3b8" opacity=".42"/></g>
  <g>
    <rect x="64" y="348" width="860" height="226" rx="8" fill="#05070d" opacity=".76" stroke="#94a3b8" stroke-opacity=".3"/>
    <text fill="#f8fafc" font-size="48" font-weight="800" font-family="Inter, Microsoft YaHei, Arial" letter-spacing="0"><tspan x="96" y="420">SOLUS 技术档案的起点</tspan></text>
    <text fill="#f8fafc" font-size="22" font-weight="500" opacity=".72" font-family="Inter, Microsoft YaHei, Arial" letter-spacing="0"><tspan x="96" y="502">SOLUS 用于沉淀游戏开发、图形渲染、工程实践和项目复盘中的长期技术笔记。</tspan></text>
  </g>
  <g>
    <rect x="64" y="54" width="118" height="38" rx="6" fill="#0f172a" stroke="#94a3b8" stroke-opacity=".52"/>
    <text x="84" y="79" fill="#f8fafc" font-size="15" font-weight="700" font-family="Inter, Microsoft YaHei, Arial">随笔</text>
    <text x="64" y="618" fill="#f8fafc" font-size="12" font-weight="700" opacity=".58" font-family="Inter, Arial">SOLUS DEV NOTES</text>
    <text x="1136" y="618" text-anchor="end" fill="#f8fafc" font-size="12" font-weight="700" opacity=".58" font-family="Inter, Arial">2026.06.04</text>
  </g>
</svg>