<svg xmlns="http://www.w3.org/2000/svg" viewBox="0 0 1200 675" role="img" aria-label="Unity 性能分析从哪里下手">
  <defs>
    <linearGradient id="bg" x1="0" y1="0" x2="1" y2="1">
      <stop offset="0" stop-color="#eaf0ff"/>
      <stop offset=".52" stop-color="#f8fbff"/>
      <stop offset="1" stop-color="#46d7bf" stop-opacity=".62"/>
    </linearGradient>
    <radialGradient id="sphere" cx=".34" cy=".25" r=".74">
      <stop offset="0" stop-color="#fff"/>
      <stop offset=".38" stop-color="#46d7bf"/>
      <stop offset="1" stop-color="#4257dd"/>
    </radialGradient>
    <pattern id="grid" width="54" height="54" patternUnits="userSpaceOnUse">
      <path d="M54 0H0v54" fill="none" stroke="#4257dd" stroke-opacity=".12"/>
    </pattern>
    <filter id="shadow" x="-40%" y="-40%" width="180%" height="180%">
      <feDropShadow dx="0" dy="20" stdDeviation="18" flood-color="#4257dd" flood-opacity=".18"/>
    </filter>
  </defs>
  <rect width="1200" height="675" fill="url(#bg)"/>
  <rect width="1200" height="675" fill="url(#grid)"/>
  <circle cx="214" cy="496" r="168" fill="#fff" opacity=".44"/>
  <g filter="url(#shadow)"><circle cx="742" cy="282" r="112" fill="url(#sphere)" opacity=".96"/>
      <circle cx="896" cy="402" r="72" fill="#46d7bf" opacity=".82"/>
      <path d="M620 500h360" stroke="#fff" stroke-width="18" stroke-linecap="round" opacity=".72"/>
      <path d="M640 232l210 122M730 150l60 250" stroke="#fff" stroke-width="4" opacity=".54"/></g>
  <g>
    <rect x="78" y="82" width="92" height="36" rx="18" fill="#4257dd" opacity=".12"/>
    <text x="100" y="106" fill="#4257dd" font-size="18" font-weight="800" font-family="Microsoft YaHei, PingFang SC, Arial">Unity</text>
    <text x="78" y="190" fill="#17243a" font-size="58" font-weight="900" font-family="Microsoft YaHei, PingFang SC, Arial">Unity 性能分析从哪里下</text><text x="78" y="260" fill="#17243a" font-size="58" font-weight="900" font-family="Microsoft YaHei, PingFang SC, Arial">手</text>
    <text x="82" y="365" fill="#52647e" font-size="24" font-weight="650" font-family="Microsoft YaHei, PingFang SC, Arial">面对卡顿问题时，先建立性能预算，再用 Profi</text><text x="82" y="399" fill="#52647e" font-size="24" font-weight="650" font-family="Microsoft YaHei, PingFang SC, Arial">ler 区分 CPU、GPU、内存和 IO 的瓶</text>
    <rect x="82" y="500" width="94" height="34" rx="17" fill="#fff" opacity=".72"/>
    <text x="99" y="523" fill="#4257dd" font-size="16" font-weight="800" font-family="Microsoft YaHei, PingFang SC, Arial">Unity</text><rect x="198" y="500" width="94" height="34" rx="17" fill="#fff" opacity=".72"/>
    <text x="215" y="523" fill="#4257dd" font-size="16" font-weight="800" font-family="Microsoft YaHei, PingFang SC, Arial">性能</text><rect x="314" y="500" width="94" height="34" rx="17" fill="#fff" opacity=".72"/>
    <text x="331" y="523" fill="#4257dd" font-size="16" font-weight="800" font-family="Microsoft YaHei, PingFang SC, Arial">Profiler</text>
  </g>
  <text x="1080" y="612" text-anchor="end" fill="#4257dd" font-size="13" font-weight="800" opacity=".34" font-family="Arial">SOLUS 37e314cb1078</text>
</svg>