<svg xmlns="http://www.w3.org/2000/svg" viewBox="0 0 1200 675" role="img" aria-label="Unity 性能分析从哪里下手 封面">
  <defs>
    <pattern id="grid" width="54" height="54" patternUnits="userSpaceOnUse">
      <path d="M54 0H0v54" fill="none" stroke="#e8f1fb" stroke-opacity=".055"/>
    </pattern>
  </defs>
  <rect width="1200" height="675" fill="#0b111a"/>
  <rect width="1200" height="675" fill="url(#grid)"/>
  <path d="M64 102H1136M64 574H1136" stroke="#e8f1fb" stroke-opacity=".09"/>
  <path d="M922 96v480" stroke="#e8f1fb" stroke-opacity=".08"/>
  <path d="M64 396H1136" stroke="#60a5fa" stroke-opacity=".14"/>
  <path d="M198 96v480" stroke="#14b8a6" stroke-opacity=".12"/>
  <path d="M84 566C236 438 354 628 506 484s280-112 416-20 182 20 238-42" fill="none" stroke="#60a5fa" stroke-opacity=".1" stroke-width="2"/>
  <g opacity=".94"><rect x="150" y="122" width="386" height="424" rx="6" fill="#111a26" stroke="#60a5fa" stroke-opacity=".48"/>
      <rect x="150" y="122" width="386" height="42" rx="6" fill="#05080d" opacity=".48"/>
      <path d="M190 212h280M190 258h236M190 304h280M190 350h180M190 396h250" stroke="#e8f1fb" stroke-opacity=".18" stroke-width="8" stroke-linecap="round"/>
      <rect x="604" y="132" width="432" height="204" rx="6" fill="#111a26" stroke="#14b8a6" stroke-opacity=".46"/>
      <path d="M646 288c44-82 94 20 142-34 38-44 74-112 116-34 24 42 50 44 76 22" fill="none" stroke="#60a5fa" stroke-width="5" stroke-linecap="round"/>
      <path d="M646 258h330M646 214h330M646 170h330" stroke="#e8f1fb" stroke-opacity=".12"/>
      <rect x="604" y="382" width="196" height="116" rx="6" fill="#111a26" stroke="#60a5fa" stroke-opacity=".34"/>
      <rect x="840" y="382" width="196" height="116" rx="6" fill="#111a26" stroke="#14b8a6" stroke-opacity=".34"/>
      <path d="M650 440h104M886 440h104" stroke="#e8f1fb" stroke-opacity=".22" stroke-width="7" stroke-linecap="round"/></g>
  <g>
    <rect x="64" y="54" width="142" height="38" rx="4" fill="#0f172a" stroke="#60a5fa" stroke-opacity=".52"/>
    <text x="84" y="79" fill="#e8f1fb" font-size="15" font-weight="700" font-family="Inter, Microsoft YaHei, Arial">Unity</text>
    <text x="1136" y="79" text-anchor="end" fill="#e8f1fb" font-size="12" font-weight="700" opacity=".56" font-family="Inter, Arial">NO. 07FA</text>
    <path d="M87 604h142" stroke="#60a5fa" stroke-width="3" opacity=".72"/>
    <text x="64" y="618" fill="#e8f1fb" font-size="12" font-weight="700" opacity=".58" font-family="Inter, Arial">SOLUS DEV NOTES</text>
    <text x="1136" y="618" text-anchor="end" fill="#e8f1fb" font-size="12" font-weight="700" opacity=".58" font-family="Inter, Arial">2026.06.04</text>
    <text x="1136" y="540" text-anchor="end" fill="#e8f1fb" font-size="34" font-weight="800" opacity=".18" font-family="Inter, Arial" letter-spacing="0">UNITY</text>
  </g>
</svg>