<svg xmlns="http://www.w3.org/2000/svg" viewBox="0 0 1200 675" role="img" aria-label="Unity 性能分析从哪里下手 封面">
  <defs>
    <linearGradient id="bg" x1="0" y1="0" x2="1" y2="1">
      <stop offset="0" stop-color="#111a26"/>
      <stop offset=".52" stop-color="#0b111a"/>
      <stop offset="1" stop-color="#05080d"/>
    </linearGradient>
    <linearGradient id="wash" x1="0" y1="0" x2="1" y2="0">
      <stop offset="0" stop-color="#60a5fa" stop-opacity=".38"/>
      <stop offset=".54" stop-color="#14b8a6" stop-opacity=".18"/>
      <stop offset="1" stop-color="#0b111a" stop-opacity=".12"/>
    </linearGradient>
    <pattern id="grid" width="54" height="54" patternUnits="userSpaceOnUse">
      <path d="M54 0H0v54" fill="none" stroke="#e8f1fb" stroke-opacity=".045"/>
    </pattern>
  </defs>
  <rect width="1200" height="675" fill="url(#bg)"/>
  <path d="M0 116C218 48 356 174 536 116s330-136 664-44v603H0z" fill="url(#wash)" opacity=".72"/>
  <rect width="1200" height="675" fill="url(#grid)"/>
  <path d="M64 102H1136M64 574H1136" stroke="#e8f1fb" stroke-opacity=".08"/>
  <path d="M930 96v480" stroke="#e8f1fb" stroke-opacity=".08"/>
  <path d="M64 396H1136" stroke="#60a5fa" stroke-opacity=".13"/>
  <path d="M198 96v480" stroke="#14b8a6" stroke-opacity=".11"/>
  <g opacity=".82"><rect x="118" y="106" width="418" height="456" rx="6" fill="#111a26" stroke="#60a5fa" stroke-opacity=".5"/>
      <rect x="118" y="106" width="418" height="44" rx="6" fill="#05080d" opacity=".52"/>
      <path d="M162 206h298M162 254h242M162 302h298M162 350h190M162 398h258" stroke="#e8f1fb" stroke-opacity=".18" stroke-width="8" stroke-linecap="round"/>
      <rect x="596" y="126" width="458" height="218" rx="6" fill="#111a26" stroke="#14b8a6" stroke-opacity=".46"/>
      <path d="M640 292c46-84 96 22 146-34 40-46 78-114 122-34 26 44 52 46 80 22" fill="none" stroke="#60a5fa" stroke-width="5" stroke-linecap="round"/>
      <path d="M640 260h346M640 214h346M640 170h346" stroke="#e8f1fb" stroke-opacity=".12"/>
      <rect x="596" y="392" width="214" height="118" rx="6" fill="#111a26" stroke="#60a5fa" stroke-opacity=".34"/>
      <rect x="846" y="392" width="208" height="118" rx="6" fill="#111a26" stroke="#14b8a6" stroke-opacity=".34"/>
      <path d="M642 450h116M892 450h108" stroke="#e8f1fb" stroke-opacity=".23" stroke-width="7" stroke-linecap="round"/></g>
  <g>
    <rect x="82" y="154" width="612" height="164" rx="6" fill="#04070d" opacity=".74"/>
    <rect x="82" y="154" width="612" height="164" rx="6" fill="#0b111a" opacity=".16" stroke="#60a5fa" stroke-opacity=".34"/>
    <text fill="#e8f1fb" font-size="42" font-weight="800" font-family="Inter, Microsoft YaHei, Arial" letter-spacing="0"><tspan x="118" y="252">Unity 性能分析从哪里下手</tspan></text>
    <text x="118" y="302" fill="#e8f1fb" font-size="15" font-weight="700" opacity=".72" font-family="Inter, Microsoft YaHei, Arial">Unity / UNITY / 2026.06.04</text>
  </g>
  <g>
    <rect x="64" y="54" width="142" height="38" rx="4" fill="#0f172a" stroke="#60a5fa" stroke-opacity=".52"/>
    <text x="84" y="79" fill="#e8f1fb" font-size="15" font-weight="700" font-family="Inter, Microsoft YaHei, Arial">Unity</text>
    <text x="1136" y="79" text-anchor="end" fill="#e8f1fb" font-size="12" font-weight="700" opacity=".56" font-family="Inter, Arial">NO. 07FA</text>
    <path d="M87 604h142" stroke="#60a5fa" stroke-width="3" opacity=".72"/>
    <text x="64" y="618" fill="#e8f1fb" font-size="12" font-weight="700" opacity=".58" font-family="Inter, Arial">SOLUS DEV NOTES</text>
    <text x="1136" y="618" text-anchor="end" fill="#e8f1fb" font-size="12" font-weight="700" opacity=".58" font-family="Inter, Arial">2026.06.04</text>
    <text x="1136" y="540" text-anchor="end" fill="#e8f1fb" font-size="34" font-weight="800" opacity=".18" font-family="Inter, Arial" letter-spacing="0">UNITY</text>
  </g>
</svg>