<svg xmlns="http://www.w3.org/2000/svg" viewBox="0 0 1200 675" role="img" aria-label="Architecture cover">
  <defs>
    <linearGradient id="bg" x1="0" y1="0" x2="1" y2="1">
      <stop offset="0" stop-color="#edf7ff"/>
      <stop offset=".5" stop-color="#eaf0ff"/>
      <stop offset="1" stop-color="#f2fff9"/>
    </linearGradient>
    <filter id="shadow" x="-30%" y="-30%" width="160%" height="160%">
      <feDropShadow dx="0" dy="18" stdDeviation="16" flood-color="#2b426a" flood-opacity=".18"/>
    </filter>
  </defs>
  <rect width="1200" height="675" fill="url(#bg)"/>
  <g stroke="#6577ff" stroke-opacity=".18" stroke-width="2">
    <path d="M180 135h840M180 235h840M180 335h840M180 435h840M180 535h840M260 80v520M420 80v520M580 80v520M740 80v520M900 80v520"/>
  </g>
  <g filter="url(#shadow)">
    <rect x="270" y="170" width="220" height="120" rx="20" fill="#6577ff"/>
    <rect x="710" y="170" width="220" height="120" rx="20" fill="#46d7bf"/>
    <rect x="490" y="385" width="220" height="120" rx="20" fill="#ffaf61"/>
    <path d="M490 230h220M600 290v95" stroke="#17243a" stroke-width="18" stroke-linecap="round"/>
    <path d="M380 290v155h110M820 290v155H710" stroke="#17243a" stroke-width="14" stroke-linecap="round" fill="none"/>
    <circle cx="600" cy="445" r="26" fill="#fff"/>
  </g>
</svg>
