<svg xmlns="http://www.w3.org/2000/svg" viewBox="0 0 1200 675" role="img" aria-label="Architecture category cover">
  <defs>
    <pattern id="grid" width="56" height="56" patternUnits="userSpaceOnUse">
      <path d="M56 0H0v56" fill="none" stroke="#edf2f7" stroke-opacity=".055"/>
    </pattern>
  </defs>
  <rect width="1200" height="675" fill="#090d12"/>
  <rect width="1200" height="675" fill="url(#grid)"/>
  <path d="M72 96h1056M72 578h1056M936 96v482" stroke="#edf2f7" stroke-opacity=".09"/>
  <g fill="none" stroke-linejoin="round">
    <rect x="188" y="168" width="230" height="104" rx="6" stroke="#60a5fa" stroke-width="4"/>
    <rect x="486" y="168" width="230" height="104" rx="6" stroke="#2dd4bf" stroke-width="4"/>
    <rect x="338" y="392" width="230" height="104" rx="6" stroke="#60a5fa" stroke-width="4"/>
    <rect x="636" y="392" width="230" height="104" rx="6" stroke="#2dd4bf" stroke-width="4"/>
    <path d="M418 220h68M601 272v120M453 392V272M716 220h74M568 444h68" stroke="#edf2f7" stroke-opacity=".28" stroke-width="3"/>
    <path d="M270 220h66M568 220h66M420 444h66M718 444h66" stroke="#edf2f7" stroke-opacity=".2" stroke-width="8" stroke-linecap="round"/>
  </g>
  <g font-family="Inter, Microsoft YaHei, Arial" letter-spacing="0">
    <rect x="72" y="52" width="138" height="34" rx="4" fill="#111821" stroke="#60a5fa" stroke-opacity=".55"/>
    <text x="92" y="75" fill="#edf2f7" font-size="14" font-weight="700">架构设计</text>
    <text x="72" y="622" fill="#edf2f7" font-size="12" font-weight="700" opacity=".6">SOLUS CATEGORY</text>
    <text x="1128" y="622" text-anchor="end" fill="#94a3b8" font-size="12" font-weight="700">SYSTEM DESIGN</text>
  </g>
</svg>
