<svg xmlns="http://www.w3.org/2000/svg" viewBox="0 0 1200 675" role="img" aria-label="Cocos category cover">
  <defs>
    <pattern id="grid" width="56" height="56" patternUnits="userSpaceOnUse">
      <path d="M56 0H0v56" fill="none" stroke="#edf2f7" stroke-opacity=".055"/>
    </pattern>
  </defs>
  <rect width="1200" height="675" fill="#090d12"/>
  <rect width="1200" height="675" fill="url(#grid)"/>
  <path d="M72 96h1056M72 578h1056M936 96v482" stroke="#edf2f7" stroke-opacity=".09"/>
  <g fill="none" stroke-linejoin="round">
    <rect x="184" y="156" width="574" height="360" rx="6" stroke="#2dd4bf" stroke-width="4"/>
    <path d="M184 220h574M320 156v360M496 220v296" stroke="#edf2f7" stroke-opacity=".13" stroke-width="3"/>
    <rect x="238" y="264" width="126" height="126" rx="6" stroke="#60a5fa" stroke-width="4"/>
    <rect x="548" y="266" width="146" height="82" rx="6" stroke="#2dd4bf" stroke-width="4"/>
    <rect x="548" y="384" width="146" height="70" rx="6" stroke="#60a5fa" stroke-width="4"/>
    <path d="M276 327h50M301 302v50M582 307h76M582 421h76" stroke="#edf2f7" stroke-opacity=".34" stroke-width="7" stroke-linecap="round"/>
    <path d="M798 206h138v100M936 386v94H800" stroke="#2dd4bf" stroke-opacity=".48" stroke-width="4"/>
  </g>
  <g font-family="Inter, Microsoft YaHei, Arial" letter-spacing="0">
    <rect x="72" y="52" width="118" height="34" rx="4" fill="#111821" stroke="#2dd4bf" stroke-opacity=".55"/>
    <text x="92" y="75" fill="#edf2f7" font-size="14" font-weight="700">Cocos</text>
    <text x="72" y="622" fill="#edf2f7" font-size="12" font-weight="700" opacity=".6">SOLUS CATEGORY</text>
    <text x="1128" y="622" text-anchor="end" fill="#94a3b8" font-size="12" font-weight="700">RUNTIME UI</text>
  </g>
</svg>
