<svg xmlns="http://www.w3.org/2000/svg" viewBox="0 0 1200 675" role="img" aria-label="Game development category cover">
  <defs>
    <pattern id="grid" width="56" height="56" patternUnits="userSpaceOnUse">
      <path d="M56 0H0v56" fill="none" stroke="#edf2f7" stroke-opacity=".055"/>
    </pattern>
  </defs>
  <rect width="1200" height="675" fill="#090d12"/>
  <rect width="1200" height="675" fill="url(#grid)"/>
  <path d="M72 96h1056M72 578h1056M936 96v482" stroke="#edf2f7" stroke-opacity=".09"/>
  <g fill="none" stroke-linejoin="round">
    <rect x="170" y="150" width="426" height="282" rx="6" stroke="#60a5fa" stroke-width="4"/>
    <path d="M214 362l100-106 82 68 82-116 76 84" stroke="#2dd4bf" stroke-width="5" stroke-linecap="round"/>
    <path d="M214 196h338M214 242h338M214 288h338M214 334h338" stroke="#edf2f7" stroke-opacity=".12"/>
    <rect x="680" y="172" width="214" height="108" rx="6" stroke="#2dd4bf" stroke-width="4"/>
    <rect x="680" y="326" width="214" height="108" rx="6" stroke="#60a5fa" stroke-width="4"/>
    <path d="M734 226h106M734 380h106M596 290h84M596 380h84" stroke="#edf2f7" stroke-opacity=".24" stroke-width="7" stroke-linecap="round"/>
    <path d="M228 496h660" stroke="#60a5fa" stroke-opacity=".35" stroke-width="4"/>
  </g>
  <g font-family="Inter, Microsoft YaHei, Arial" letter-spacing="0">
    <rect x="72" y="52" width="138" height="34" rx="4" fill="#111821" stroke="#60a5fa" stroke-opacity=".55"/>
    <text x="92" y="75" fill="#edf2f7" font-size="14" font-weight="700">游戏开发</text>
    <text x="72" y="622" fill="#edf2f7" font-size="12" font-weight="700" opacity=".6">SOLUS CATEGORY</text>
    <text x="1128" y="622" text-anchor="end" fill="#94a3b8" font-size="12" font-weight="700">GAMEPLAY LOOP</text>
  </g>
</svg>
