<svg xmlns="http://www.w3.org/2000/svg" viewBox="0 0 1200 675" role="img" aria-label="Game development cover">
  <defs>
    <linearGradient id="bg" x1="0" y1="0" x2="1" y2="1">
      <stop offset="0" stop-color="#eef8ff"/>
      <stop offset="0.52" stop-color="#cfe0ff"/>
      <stop offset="1" stop-color="#fff1cf"/>
    </linearGradient>
    <pattern id="grid" width="52" height="52" patternUnits="userSpaceOnUse">
      <path d="M52 0H0v52" fill="none" stroke="#6d8df7" stroke-opacity=".16"/>
    </pattern>
    <filter id="shadow" x="-40%" y="-40%" width="180%" height="180%">
      <feDropShadow dx="0" dy="18" stdDeviation="16" flood-color="#3650d8" flood-opacity=".22"/>
    </filter>
  </defs>
  <rect width="1200" height="675" fill="url(#bg)"/>
  <rect width="1200" height="675" fill="url(#grid)"/>
  <circle cx="250" cy="470" r="150" fill="#ffffff" opacity=".45"/>
  <g filter="url(#shadow)">
    <path d="M630 145l155 78-155 78-155-78z" fill="#8aa0ff"/>
    <path d="M475 223l155 78v152l-155-78z" fill="#5971ea"/>
    <path d="M785 223l-155 78v152l155-78z" fill="#46d7bf"/>
    <path d="M730 84l110 55-110 55-110-55z" fill="#c9d9ff"/>
    <path d="M620 139l110 55v108l-110-55z" fill="#8ea4ff"/>
    <path d="M840 139l-110 55v108l110-55z" fill="#63e0cd"/>
    <rect x="190" y="365" width="210" height="86" rx="43" fill="#edf4ff"/>
    <circle cx="250" cy="408" r="18" fill="#4257dd"/>
    <circle cx="326" cy="388" r="11" fill="#ffaf61"/>
    <circle cx="356" cy="414" r="11" fill="#46d7bf"/>
    <path d="M225 408h50M250 383v50" stroke="#17243a" stroke-width="13" stroke-linecap="round"/>
  </g>
</svg>
