<svg xmlns="http://www.w3.org/2000/svg" viewBox="0 0 1200 675" role="img" aria-label="Notes category cover">
  <defs>
    <pattern id="grid" width="56" height="56" patternUnits="userSpaceOnUse">
      <path d="M56 0H0v56" fill="none" stroke="#edf2f7" stroke-opacity=".055"/>
    </pattern>
  </defs>
  <rect width="1200" height="675" fill="#090d12"/>
  <rect width="1200" height="675" fill="url(#grid)"/>
  <path d="M72 96h1056M72 578h1056M936 96v482" stroke="#edf2f7" stroke-opacity=".09"/>
  <g fill="none" stroke-linejoin="round">
    <path d="M292 132h430c42 0 76 34 76 76v330H368c-42 0-76-34-76-76z" stroke="#60a5fa" stroke-width="4"/>
    <path d="M368 182h430v356H368c-42 0-76-34-76-76V258c0-42 34-76 76-76z" stroke="#2dd4bf" stroke-opacity=".68" stroke-width="4"/>
    <path d="M398 266h270M398 318h318M398 370h236M398 422h296" stroke="#edf2f7" stroke-opacity=".24" stroke-width="8" stroke-linecap="round"/>
    <path d="M842 170v360M872 250h138M872 350h108M872 450h128" stroke="#94a3b8" stroke-opacity=".26" stroke-width="5" stroke-linecap="round"/>
  </g>
  <g font-family="Inter, Microsoft YaHei, Arial" letter-spacing="0">
    <rect x="72" y="52" width="118" height="34" rx="4" fill="#111821" stroke="#94a3b8" stroke-opacity=".55"/>
    <text x="92" y="75" fill="#edf2f7" font-size="14" font-weight="700">随笔</text>
    <text x="72" y="622" fill="#edf2f7" font-size="12" font-weight="700" opacity=".6">SOLUS CATEGORY</text>
    <text x="1128" y="622" text-anchor="end" fill="#94a3b8" font-size="12" font-weight="700">FIELD NOTES</text>
  </g>
</svg>
