<svg xmlns="http://www.w3.org/2000/svg" viewBox="0 0 1200 675" role="img" aria-label="Rendering category cover">
  <defs>
    <pattern id="grid" width="56" height="56" patternUnits="userSpaceOnUse">
      <path d="M56 0H0v56" fill="none" stroke="#edf2f7" stroke-opacity=".055"/>
    </pattern>
  </defs>
  <rect width="1200" height="675" fill="#090d12"/>
  <rect width="1200" height="675" fill="url(#grid)"/>
  <path d="M72 96h1056M72 578h1056M936 96v482" stroke="#edf2f7" stroke-opacity=".09"/>
  <g fill="none" stroke-linejoin="round">
    <rect x="156" y="138" width="560" height="398" rx="6" stroke="#60a5fa" stroke-width="4"/>
    <path d="M206 436L318 308l118 76 136-162 98 128" stroke="#2dd4bf" stroke-width="5" stroke-linecap="round"/>
    <path d="M206 470h462M206 390h462M206 310h462M206 230h462M286 176v318M410 176v318M534 176v318" stroke="#edf2f7" stroke-opacity=".13"/>
    <rect x="782" y="156" width="254" height="64" rx="6" stroke="#2dd4bf" stroke-width="4"/>
    <rect x="782" y="266" width="254" height="64" rx="6" stroke="#60a5fa" stroke-width="4"/>
    <rect x="782" y="376" width="254" height="64" rx="6" stroke="#2dd4bf" stroke-width="4"/>
    <path d="M716 188h66M716 298h66M716 408h66" stroke="#edf2f7" stroke-opacity=".24" stroke-width="5"/>
  </g>
  <g font-family="Inter, Microsoft YaHei, Arial" letter-spacing="0">
    <rect x="72" y="52" width="138" height="34" rx="4" fill="#111821" stroke="#60a5fa" stroke-opacity=".55"/>
    <text x="92" y="75" fill="#edf2f7" font-size="14" font-weight="700">图形渲染</text>
    <text x="72" y="622" fill="#edf2f7" font-size="12" font-weight="700" opacity=".6">SOLUS CATEGORY</text>
    <text x="1128" y="622" text-anchor="end" fill="#94a3b8" font-size="12" font-weight="700">FRAME DEBUG</text>
  </g>
</svg>
