<svg xmlns="http://www.w3.org/2000/svg" viewBox="0 0 1200 675" role="img" aria-label="Toolchain category cover">
  <defs>
    <pattern id="grid" width="56" height="56" patternUnits="userSpaceOnUse">
      <path d="M56 0H0v56" fill="none" stroke="#edf2f7" stroke-opacity=".055"/>
    </pattern>
  </defs>
  <rect width="1200" height="675" fill="#090d12"/>
  <rect width="1200" height="675" fill="url(#grid)"/>
  <path d="M72 96h1056M72 578h1056M936 96v482" stroke="#edf2f7" stroke-opacity=".09"/>
  <g fill="none" stroke-linejoin="round">
    <path d="M168 338h862" stroke="#2dd4bf" stroke-opacity=".42" stroke-width="7" stroke-linecap="round"/>
    <path d="M276 338c74-74 148-74 222 0s148 74 224 0 150-74 226 0" stroke="#60a5fa" stroke-width="4" opacity=".72"/>
    <rect x="178" y="248" width="126" height="126" rx="6" stroke="#2dd4bf" stroke-width="4"/>
    <rect x="360" y="208" width="126" height="126" rx="6" stroke="#60a5fa" stroke-width="4"/>
    <rect x="542" y="248" width="126" height="126" rx="6" stroke="#2dd4bf" stroke-width="4"/>
    <rect x="724" y="208" width="126" height="126" rx="6" stroke="#60a5fa" stroke-width="4"/>
    <rect x="906" y="248" width="126" height="126" rx="6" stroke="#2dd4bf" stroke-width="4"/>
    <path d="M214 310h54M396 270h54M578 310h54M760 270h54M942 310h54" stroke="#edf2f7" stroke-opacity=".28" stroke-width="7" stroke-linecap="round"/>
    <rect x="348" y="486" width="504" height="48" rx="6" stroke="#60a5fa" stroke-opacity=".42" stroke-width="4"/>
  </g>
  <g font-family="Inter, Microsoft YaHei, Arial" letter-spacing="0">
    <rect x="72" y="52" width="118" height="34" rx="4" fill="#111821" stroke="#2dd4bf" stroke-opacity=".55"/>
    <text x="92" y="75" fill="#edf2f7" font-size="14" font-weight="700">工具链</text>
    <text x="72" y="622" fill="#edf2f7" font-size="12" font-weight="700" opacity=".6">SOLUS CATEGORY</text>
    <text x="1128" y="622" text-anchor="end" fill="#94a3b8" font-size="12" font-weight="700">PIPELINE</text>
  </g>
</svg>
