<svg xmlns="http://www.w3.org/2000/svg" viewBox="0 0 64 64" role="img" aria-label="SOLUS">
  <rect width="64" height="64" rx="14" fill="#f6f8fb"/>
  <rect x="7" y="7" width="50" height="50" rx="10" fill="#ffffff" stroke="#2563eb" stroke-width="2"/>
  <path d="M38.5 22.5c-1.8-2.3-4.5-3.5-8.2-3.5-4.8 0-8.1 2.5-8.1 6.1 0 3.8 3 5.2 8.7 6.4 4.5.9 6 1.7 6 3.8 0 2-1.8 3.4-5.5 3.4-3.5 0-6.1-1.2-8.1-3.7l-4.1 3.3c2.8 3.8 6.7 5.7 12.1 5.7 6.7 0 10.8-3.3 10.8-8.8 0-4.9-3.1-7-9.7-8.3-3.7-.8-5-1.5-5-3.2 0-1.8 1.7-3 4.7-3 2.6 0 4.6.9 6.2 2.8l4.2-3z" fill="#2563eb"/>
  <path d="M44 18h4v28h-4z" fill="#14b8a6"/>
</svg>
